#!OML:ASF F:\VICON\USERDATA\INSTALL\Justin_Nancy\Justin_Nancy.ASF
:FULLY-SPECIFIED
:DEGREES
64
root 12.8325 17.4221 -17.2649 0.43144 2.05421 4.77411
lowerback 7.13221 -1.90217 -5.90675
upperback 0.176455 -2.95779 1.55863
thorax -3.43648 -1.36363 5.23392
lowerneck -16.5485 -3.42978 -9.26681
upperneck 22.6404 -3.57123 5.15574
head 10.2322 -1.85084 2.88983
rclavicle -2.06736e-014 -1.51076e-014
rhumerus -33.8704 -17.7146 -77.2843
rradius 28.6361
rwrist 8.87662
rhand -11.5631 12.0634
rfingers 7.12502
rthumb 14.478 -17.4115
lclavicle -2.06736e-014 -1.51076e-014
lhumerus -23.1404 6.22311 84.8774
lradius 28.6066
lwrist -9.08385
lhand -14.5912 28.466
lfingers 7.12502
lthumb 11.559 58.1273
rfemur -31.2552 0.212889 16.6915
rtibia 42.2349
rfoot -5.28221 -7.89413
rtoes -9.3809
lfemur -3.11495 2.62846 -30.2169
ltibia 23.9641
lfoot -18.2921 -9.09144
ltoes 4.75786
65
root 12.8442 17.4203 -17.1385 0.639395 2.12713 4.90368
lowerback 7.0704 -1.94586 -5.97916
upperback 0.167657 -3.01999 1.51488
thorax -3.40149 -1.39479 5.23135
lowerneck -16.9855 -3.36101 -9.18835
upperneck 22.9166 -3.49275 5.27662
head 10.4086 -1.79143 2.93318
rclavicle 4.64659e-014 -5.56597e-015
rhumerus -33.7919 -17.943 -77.2592
rradius 28.57
rwrist 9.00471
rhand -11.9289 10.9599
rfingers 7.12502
rthumb 14.1256 -18.5399
lclavicle 4.64659e-014 -5.56597e-015
lhumerus -22.8223 6.05937 84.874
lradius 28.975
lwrist -8.88781
lhand -14.8228 31.9117
lfingers 7.12502
lthumb 11.3356 61.5853
rfemur -31.3616 0.44117 16.5595
rtibia 39.5192
rfoot -4.43141 -8.08475
rtoes -10.8205
lfemur -2.55984 2.51485 -30.4146
ltibia 23.4065
lfoot -18.4276 -9.09477
ltoes 3.838
66
root 12.8532 17.4211 -17.0095 0.71062 2.16494 5.0714
lowerback 6.95099 -1.95336 -6.09613
upperback 0.311228 -3.03107 1.43966
thorax -3.18132 -1.41098 5.20865
lowerneck -17.3111 -3.55385 -9.19229
upperneck 22.7227 -3.73097 5.29976
head 10.421 -1.8912 2.90278
rclavicle 5.81445e-015 -3.97569e-015
rhumerus -33.5924 -18.1944 -77.3233
rradius 28.524
rwrist 9.06505
rhand -12.2589 10.0892
rfingers 7.12502
rthumb 13.8075 -19.4325
lclavicle 5.81445e-015 -3.97569e-015
lhumerus -22.0572 5.88467 84.899
lradius 28.9957
lwrist -8.81451
lhand -14.5008 29.7494
lfingers 7.12502
lthumb 11.6462 59.4058
rfemur -31.1418 0.766391 16.3508
rtibia 36.7706
rfoot -4.1117 -8.22452
rtoes -9.37776
lfemur -1.84096 2.78886 -30.5859
ltibia 22.897
lfoot -18.4936 -9.18766
ltoes 4.93845
67
root 12.8591 17.4137 -16.8782 0.814202 2.25506 5.11779
lowerback 6.99724 -2.04379 -6.14165
upperback 0.274263 -3.15942 1.42679
thorax -3.22705 -1.47156 5.2349
lowerneck -17.1927 -3.51125 -9.22554
upperneck 22.5344 -3.67163 5.31712
head 10.3262 -1.86423 2.92112
rclavicle -6.26172e-015 -1.43125e-014
rhumerus -33.679 -18.1965 -77.3209
rradius 28.3139
rwrist 9.20038
rhand -12.6568 9.99324
rfingers 7.12502
rthumb 13.424 -19.5542
lclavicle -6.26172e-015 -1.43125e-014
lhumerus -21.8039 5.72395 84.8344
lradius 29.2309
lwrist -8.41555
lhand -14.1182 24.8728
lfingers 7.12502
lthumb 12.0151 54.5079
rfemur -30.9871 1.05338 16.3328
rtibia 34.1037
rfoot -4.20231 -8.69569
rtoes -6.31071
lfemur -1.24353 3.05401 -30.6021
ltibia 22.3473
lfoot -18.1893 -9.33665
ltoes 8.00913
68
root 12.8656 17.3968 -16.7487 1.10833 2.22821 4.96764
lowerback 7.01064 -2.10754 -6.02604
upperback 0.0105274 -3.23863 1.53863
thorax -3.49917 -1.49499 5.30327
lowerneck -16.5318 -3.45568 -9.4724
upperneck 22.2461 -3.61383 5.44337
head 10.1 -1.85005 3.01574
rclavicle -1.22253e-014 -1.11319e-014
rhumerus -34.0112 -18.0569 -77.1216
rradius 28.1212
rwrist 9.46506
rhand -12.7419 10.1729
rfingers 7.12502
rthumb 13.3419 -19.38
lclavicle -1.22253e-014 -1.11319e-014
lhumerus -21.9844 5.61415 84.8674
lradius 29.5683
lwrist -8.16703
lhand -13.9108 27.2635
lfingers 7.12502
lthumb 12.2152 56.8868
rfemur -31.171 1.40573 16.5155
rtibia 31.425
rfoot -3.87533 -9.17218
rtoes -4.19629
lfemur -1.02311 3.21981 -30.4686
ltibia 21.8516
lfoot -17.5452 -9.04481
ltoes 9.06771
69
root 12.8752 17.3917 -16.6173 1.36087 2.14918 4.94495
lowerback 6.79783 -2.10659 -5.98752
upperback -0.0207958 -3.22082 1.57716
thorax -3.41458 -1.48912 5.31
lowerneck -16.5346 -3.53497 -9.61708
upperneck 22.1767 -3.70404 5.52763
head 10.0884 -1.89327 3.05638
rclavicle 1.93318e-014 -1.90833e-014
rhumerus -33.9535 -18.2921 -77.0052
rradius 27.9633
rwrist 9.73442
rhand -12.8092 9.48467
rfingers 7.12502
rthumb 13.2771 -20.0724
lclavicle 1.93318e-014 -1.90833e-014
lhumerus -21.6701 5.51857 84.9506
lradius 29.759
lwrist -8.04561
lhand -15.3313 23.9269
lfingers 7.12502
lthumb 10.8452 53.6269
rfemur -31.1644 1.67276 16.5532
rtibia 28.8064
rfoot -3.47724 -9.50337
rtoes -4.88566
lfemur -0.618162 3.28651 -30.5076
ltibia 21.3544
lfoot -17.1439 -8.62707
ltoes 8.87606
70
root 12.895 17.3852 -16.4872 1.55276 2.09804 5.12283
lowerback 6.55227 -2.14428 -5.99035
upperback 0.0746487 -3.25671 1.50284
thorax -3.17645 -1.51897 5.2198
lowerneck -17.0493 -3.54043 -9.52015
upperneck 22.2736 -3.67555 5.47526
head 10.215 -1.87169 3.02365
rclavicle 6.16232e-015 7.95139e-016
rhumerus -33.7361 -18.3101 -77.0895
rradius 27.9385
rwrist 9.77561
rhand -12.7702 8.10417
rfingers 7.12502
rthumb 13.3147 -21.4505
lclavicle 6.16232e-015 7.95139e-016
lhumerus -21.2503 5.51442 84.946
lradius 30.0855
lwrist -7.81582
lhand -14.8745 25.9479
lfingers 7.12502
lthumb 11.2858 55.6243
rfemur -30.9652 1.49749 16.4807
rtibia 26.2966
rfoot -3.27325 -9.19118
rtoes -6.57066
lfemur -0.0301577 3.31 -30.81
ltibia 20.8271
lfoot -16.9404 -8.33889
ltoes 9.34616
71
root 12.9096 17.3723 -16.3554 1.5552 2.12233 5.18209
lowerback 6.64923 -2.18156 -5.93009
upperback 0.0830686 -3.30768 1.493
thorax -3.21921 -1.54387 5.18439
lowerneck -17.1626 -3.50445 -9.459
upperneck 22.2358 -3.59206 5.32952
head 10.212 -1.84288 2.97155
rclavicle -2.19657e-014 1.43125e-014
rhumerus -33.7463 -18.3392 -77.0391
rradius 27.889
rwrist 9.97243
rhand -12.474 7.41268
rfingers 7.12502
rthumb 13.6002 -22.1231
lclavicle -2.19657e-014 1.43125e-014
lhumerus -21.1539 5.29297 84.9835
lradius 30.522
lwrist -7.49443
lhand -15.3012 22.5826
lfingers 7.12502
lthumb 10.8743 52.2811
rfemur -30.5615 1.1646 16.646
rtibia 23.9745
rfoot -3.3508 -8.61031
rtoes -7.38475
lfemur 0.802984 3.2742 -30.9536
ltibia 20.2379
lfoot -16.8297 -7.95751
ltoes 8.2582
72
root 12.9118 17.3689 -16.2172 1.50923 2.33237 5.13698
lowerback 6.74347 -2.25191 -5.96539
upperback 0.124555 -3.40556 1.58596
thorax -3.20824 -1.59301 5.31318
lowerneck -17.2742 -3.5117 -9.42335
upperneck 22.1769 -3.56804 5.20814
head 10.2073 -1.84052 2.92373
rclavicle -5.26779e-015 1.35174e-014
rhumerus -33.6945 -18.5354 -76.842
rradius 27.5792
rwrist 10.3366
rhand -12.3506 7.88618
rfingers 7.12502
rthumb 13.7191 -21.6416
lclavicle -5.26779e-015 1.35174e-014
lhumerus -20.9365 5.39647 85.0668
lradius 30.7867
lwrist -7.36622
lhand -14.4548 24.6205
lfingers 7.12502
lthumb 11.6906 54.2743
rfemur -30.0418 1.37704 16.7109
rtibia 21.8699
rfoot -3.82074 -8.70428
rtoes -7.15422
lfemur 1.68192 3.09296 -30.9144
ltibia 19.6765
lfoot -16.8394 -7.5846
ltoes 7.93983
73
root 12.9141 17.362 -16.0757 1.62733 2.53315 5.23835
lowerback 6.42957 -2.3099 -6.05325
upperback 0.322301 -3.46722 1.53946
thorax -2.8156 -1.64289 5.29359
lowerneck -17.6897 -3.57211 -9.29005
upperneck 22.1398 -3.65116 5.22147
head 10.2764 -1.85941 2.89121
rclavicle 1.0635e-014 -1.59028e-014
rhumerus -33.4571 -18.9884 -76.8136
rradius 27.2986
rwrist 10.5129
rhand -12.6868 8.59764
rfingers 7.12502
rthumb 13.3951 -20.9517
lclavicle 1.0635e-014 -1.59028e-014
lhumerus -20.4881 5.26664 85.1025
lradius 31.1056
lwrist -6.9051
lhand -14.367 24.6011
lfingers 7.12502
lthumb 11.7752 54.2501
rfemur -29.7676 1.47321 16.6557
rtibia 20.0319
rfoot -4.27004 -8.6804
rtoes -9.63228
lfemur 2.31173 2.98033 -31.0198
ltibia 19.1688
lfoot -16.7616 -7.38458
ltoes 7.90568
